<svg height="24" viewBox="0 0 24 24" width="24" xmlns="http://www.w3.org/2000/svg"><path d="m13.9683434 13.6754326c-.0242877.0649595-.062551.1258818-.11479.1781208s-.1131613.0905023-.1781208.11479l-4.98973726 1.9958949c-.40815598.1632624-.81319608-.2417777-.64993369-.6499336l1.99589495-4.9897373c.0242877-.0649595.062551-.1258818.11479-.1781208s.1131613-.0905023.1781208-.11479l4.9897373-1.99589495c.4081559-.16326239.813196.24177771.6499336.64993369zm-2.5786125-2.9928085 1.927645 1.927645 1.2850966-3.21274163zm1.2205382 2.6347518-1.927645-1.927645-1.28509663 3.2127416zm-.6102691 8.6826241c-5.5228475 0-10-4.4771525-10-10s4.4771525-10 10-10 10 4.4771525 10 10-4.4771525 10-10 10zm0-1c4.9705627 0 9-4.0294373 9-9 0-4.97056275-4.0294373-9-9-9-4.97056275 0-9 4.02943725-9 9 0 4.9705627 4.02943725 9 9 9z"/></svg>