<svg height="24" viewBox="0 0 24 24" width="24" xmlns="http://www.w3.org/2000/svg"><path d="m12.5 10.2071068-4.5 4.5v1.2928932h1.29289322l4.49999998-4.5zm.7071068-.7071068 1.2928932 1.2928932 1.2928932-1.2928932-1.2928932-1.29289322zm-1.2071068 12.5c-5.5228475 0-10-4.4771525-10-10s4.4771525-10 10-10 10 4.4771525 10 10-4.4771525 10-10 10zm0-1c4.9705627 0 9-4.0294373 9-9 0-4.97056275-4.0294373-9-9-9-4.97056275 0-9 4.02943725-9 9 0 4.9705627 4.02943725 9 9 9zm2.8535534-13.85355339 2 2c.1952621.19526215.1952621.51184463 0 .70710678l-7.00000001 7.00000001c-.09376819.0937682-.22094515.1464466-.35355339.1464466h-2c-.27614237 0-.5-.2238576-.5-.5v-2c0-.1326082.05267842-.2597852.14644661-.3535534l6.99999999-6.99999999c.1952622-.19526215.5118446-.19526215.7071068 0z"/></svg>