<svg height="24" viewBox="0 0 24 24" width="24" xmlns="http://www.w3.org/2000/svg"><path d="m15 12.7071068v5.7928932c0 .2044523-.1244755.3883067-.3143047.4642383l-4.99999996 2c-.3284322.1313729-.68569534-.110506-.68569534-.4642383v-7.7928932l-5.85355339-5.85355341c-.09376819-.09376819-.14644661-.22094515-.14644661-.35355339v-3c0-.27614237.22385763-.5.5-.5h17c.2761424 0 .5.22385763.5.5v3c0 .13260824-.0526784.2597852-.1464466.35355339zm-1 .2928932h-4v6.7614835l4-1.6zm-10-9v2.29289322l5.70710678 5.70710678h4.58578642l5.7071068-5.70710678v-2.29289322z"/></svg>