<svg height="24" viewBox="0 0 24 24" width="24" xmlns="http://www.w3.org/2000/svg"><path d="m3 5.5c0-1.38071187 1.11928813-2.5 2.5-2.5h3c1.38071187 0 2.5 1.11928813 2.5 2.5v3c0 1.38071187-1.11928813 2.5-2.5 2.5h-3c-1.38071187 0-2.5-1.11928813-2.5-2.5zm1 0v3c0 .82842712.67157288 1.5 1.5 1.5h3c.82842712 0 1.5-.67157288 1.5-1.5v-3c0-.82842712-.67157288-1.5-1.5-1.5h-3c-.82842712 0-1.5.67157288-1.5 1.5zm9 0c0-1.38071187 1.1192881-2.5 2.5-2.5h3c1.3807119 0 2.5 1.11928813 2.5 2.5v3c0 1.38071187-1.1192881 2.5-2.5 2.5h-3c-1.3807119 0-2.5-1.11928813-2.5-2.5zm1 0v3c0 .82842712.6715729 1.5 1.5 1.5h3c.8284271 0 1.5-.67157288 1.5-1.5v-3c0-.82842712-.6715729-1.5-1.5-1.5h-3c-.8284271 0-1.5.67157288-1.5 1.5zm-11 10c0-1.3807119 1.11928813-2.5 2.5-2.5h3c1.38071187 0 2.5 1.1192881 2.5 2.5v3c0 1.3807119-1.11928813 2.5-2.5 2.5h-3c-1.38071187 0-2.5-1.1192881-2.5-2.5zm1 0v3c0 .8284271.67157288 1.5 1.5 1.5h3c.82842712 0 1.5-.6715729 1.5-1.5v-3c0-.8284271-.67157288-1.5-1.5-1.5h-3c-.82842712 0-1.5.6715729-1.5 1.5zm9 0c0-1.3807119 1.1192881-2.5 2.5-2.5h3c1.3807119 0 2.5 1.1192881 2.5 2.5v3c0 1.3807119-1.1192881 2.5-2.5 2.5h-3c-1.3807119 0-2.5-1.1192881-2.5-2.5zm1 0v3c0 .8284271.6715729 1.5 1.5 1.5h3c.8284271 0 1.5-.6715729 1.5-1.5v-3c0-.8284271-.6715729-1.5-1.5-1.5h-3c-.8284271 0-1.5.6715729-1.5 1.5z"/></svg>