<svg enable-background="new 0 0 24 24" height="24" viewBox="0 0 24 24" width="24" xmlns="http://www.w3.org/2000/svg"><path d="m0 0h24v24h-24z" fill="none"/><path d="m11.34 9.76-1.41-1.42c-.95-.94-2.2-1.46-3.54-1.46-.63 0-1.25.12-1.82.34l1.04 1.04h2.28v2.14c.4.23.86.35 1.33.35.73 0 1.41-.28 1.92-.8z" opacity=".3"/><path d="m11 6.62 6 5.97v1.41h-1.41l-2.83-2.83-.2.2c-.46.46-.99.8-1.56 1.03v2.6h6v2c0 .55.45 1 1 1s1-.45 1-1v-11h-8z" opacity=".3"/><path d="m9 4v1.38c-.83-.33-1.72-.5-2.61-.5-1.79 0-3.58.68-4.95 2.05l3.33 3.33h1.11v1.11c.86.86 1.98 1.31 3.11 1.36v2.27h-2.99v3c0 1.1.9 2 2 2h10c1.66 0 3-1.34 3-3v-13zm-1.11 6.41v-2.15h-2.28l-1.04-1.04c.57-.22 1.19-.34 1.82-.34 1.34 0 2.59.52 3.54 1.46l1.41 1.41-.2.2c-.51.51-1.19.8-1.92.8-.47 0-.93-.12-1.33-.34zm11.11 6.59c0 .55-.45 1-1 1s-1-.45-1-1v-2h-6v-2.59c.57-.23 1.1-.57 1.56-1.03l.2-.2 2.83 2.82h1.41v-1.41l-6-5.97v-.62h8z"/></svg>