<svg height="24" viewBox="0 0 24 24" width="24" xmlns="http://www.w3.org/2000/svg"><path d="m20 15.2928932v-9.7928932c0-.82842712-.6715729-1.5-1.5-1.5h-13c-.82842712 0-1.5.67157288-1.5 1.5v6.7928932l3.14644661-3.14644659c.19526215-.19526215.51184463-.19526215.70710678 0l5.64644661 5.64644659 2.6464466-2.6464466c.1952622-.1952621.5118446-.1952621.7071068 0zm0 1.4142136-3.5-3.5-2.6464466 2.6464466c-.1952622.1952621-.5118446.1952621-.7071068 0l-5.6464466-5.6464466-3.5 3.5v4.7928932c0 .8284271.67157288 1.5 1.5 1.5h13c.8284271 0 1.5-.6715729 1.5-1.5zm-17-11.2071068c0-1.38071187 1.11928813-2.5 2.5-2.5h13c1.3807119 0 2.5 1.11928813 2.5 2.5v13c0 1.3807119-1.1192881 2.5-2.5 2.5h-13c-1.38071187 0-2.5-1.1192881-2.5-2.5zm12 .5h2c.5522847 0 1 .44771525 1 1v2c0 .55228475-.4477153 1-1 1h-2c-.5522847 0-1-.44771525-1-1v-2c0-.55228475.4477153-1 1-1zm0 1v2h2v-2z"/></svg>