<svg height="24" viewBox="0 0 24 24" width="24" xmlns="http://www.w3.org/2000/svg"><path d="m5.5 3c-.27614237 0-.5.22385763-.5.5v3c0 .27614237.22385763.5.5.5h9c.2761424 0 .5-.22385763.5-.5v-3c0-.27614237-.2238576-.5-.5-.5zm0-1h9c.8284271 0 1.5.67157288 1.5 1.5v3c0 .82842712-.6715729 1.5-1.5 1.5h-9c-.82842712 0-1.5-.67157288-1.5-1.5v-3c0-.82842712.67157288-1.5 1.5-1.5zm1 2h1c.27614237 0 .5.22385763.5.5v1c0 .27614237-.22385763.5-.5.5h-1c-.27614237 0-.5-.22385763-.5-.5v-1c0-.27614237.22385763-.5.5-.5zm3 0h1c.2761424 0 .5.22385763.5.5v1c0 .27614237-.2238576.5-.5.5h-1c-.27614237 0-.5-.22385763-.5-.5v-1c0-.27614237.22385763-.5.5-.5zm7.5 12v-1h-2.5c-.8284271 0-1.5-.6715729-1.5-1.5v-1c0-.8284271.6715729-1.5 1.5-1.5h2.5v-.5c0-.2761424-.2238576-.5-.5-.5h-9c-.27614237 0-.5.2238576-.5.5v.5h2.5c.8284271 0 1.5.6715729 1.5 1.5v1c0 .8284271-.6715729 1.5-1.5 1.5h-6c-.82842712 0-1.5-.6715729-1.5-1.5v-1c0-.8284271.67157288-1.5 1.5-1.5h2.5v-.5c0-.82842712.67157288-1.5 1.5-1.5h2.5v-1.5c0-.27614237.2238576-.5.5-.5s.5.22385763.5.5v1.5h5.5c.8284271 0 1.5.67157288 1.5 1.5v.5h2.5c.8284271 0 1.5.6715729 1.5 1.5v1c0 .8284271-.6715729 1.5-1.5 1.5h-2.5v1.0853529c.5825962.2059182 1 .7615377 1 1.4146471v.5h.5c.8284271 0 1.5.6715729 1.5 1.5v1c0 .8284271-.6715729 1.5-1.5 1.5h-2c-.8284271 0-1.5-.6715729-1.5-1.5v-1c0-.8284271.6715729-1.5 1.5-1.5h.5v-.5c0-.2761424-.2238576-.5-.5-.5h-5.5v1h.5c.8284271 0 1.5.6715729 1.5 1.5v1c0 .8284271-.6715729 1.5-1.5 1.5h-2c-.82842712 0-1.5-.6715729-1.5-1.5v-1c0-.8284271.67157288-1.5 1.5-1.5h.5v-1h-5.5c-.27614237 0-.5.2238576-.5.5v.5h.5c.82842712 0 1.5.6715729 1.5 1.5v1c0 .8284271-.67157288 1.5-1.5 1.5h-2c-.82842712 0-1.5-.6715729-1.5-1.5v-1c0-.8284271.67157288-1.5 1.5-1.5h.5v-.5c0-.8284271.67157288-1.5 1.5-1.5zm-4.5-12h1c.2761424 0 .5.22385763.5.5v1c0 .27614237-.2238576.5-.5.5h-1c-.2761424 0-.5-.22385763-.5-.5v-1c0-.27614237.2238576-.5.5-.5zm2 8c-.2761424 0-.5.2238576-.5.5v1c0 .2761424.2238576.5.5.5h6c.2761424 0 .5-.2238576.5-.5v-1c0-.2761424-.2238576-.5-.5-.5zm-11 0c-.27614237 0-.5.2238576-.5.5v1c0 .2761424.22385763.5.5.5h6c.27614237 0 .5-.2238576.5-.5v-1c0-.2761424-.22385763-.5-.5-.5zm0 7c-.27614237 0-.5.2238576-.5.5v1c0 .2761424.22385763.5.5.5h2c.27614237 0 .5-.2238576.5-.5v-1c0-.2761424-.22385763-.5-.5-.5zm7 0c-.2761424 0-.5.2238576-.5.5v1c0 .2761424.2238576.5.5.5h2c.2761424 0 .5-.2238576.5-.5v-1c0-.2761424-.2238576-.5-.5-.5zm7 0c-.2761424 0-.5.2238576-.5.5v1c0 .2761424.2238576.5.5.5h2c.2761424 0 .5-.2238576.5-.5v-1c0-.2761424-.2238576-.5-.5-.5z"/></svg>