<svg height="24" viewBox="0 0 24 24" width="24" xmlns="http://www.w3.org/2000/svg"><path fill="#6495ED" d="m12 14c-2.209139 0-4-1.790861-4-4s1.790861-4 4-4 4 1.790861 4 4-1.790861 4-4 4zm0-1c1.6568542 0 3-1.3431458 3-3 0-1.65685425-1.3431458-3-3-3s-3 1.34314575-3 3c0 1.6568542 1.3431458 3 3 3zm.3391401 7.8674017c-.1915309.1767977-.4867493.1767977-.6782802 0-4.42602899-4.0855652-6.6608599-7.6956767-6.6608599-10.8674017 0-3.86599325 3.13400675-7 7-7 3.8659932 0 7 3.13400675 7 7 0 3.171725-2.2348309 6.7818365-6.6608599 10.8674017zm5.6608599-10.8674017c0-3.3137085-2.6862915-6-6-6s-6 2.6862915-6 6c0 2.7518356 1.98660341 6.0353377 6 9.8163638 4.0133966-3.7810261 6-7.0645282 6-9.8163638z"/></svg>