<svg height="24" viewBox="0 0 24 24" width="24" xmlns="http://www.w3.org/2000/svg"><path d="m15 13.2882043c-.980915.3715079-2.0774317.2972584-3-.2047217-.9225683.5019801-2.01908495.5762296-3 .2047217v7.1996786c.93833678.3316544 1.9480937.5121171 3 .5121171s2.0616632-.1804627 3-.5121171zm-.2015705-.9985792-2.7984295-4.79730767-2.7984295 4.79730767c.817249.3702166 1.770662.294628 2.5210794-.2056502.1679497-.1119665.3867505-.1119665.5547002 0 .7504174.5002782 1.7038304.5758668 2.5210794.2056502zm1.2015705.2204336v7.5544217c2.963437-1.4727026 5-4.5307591 5-8.0644804 0-4.97056275-4.0294373-9-9-9-4.97056275 0-9 4.02943725-9 9 0 3.5337213 2.03656304 6.5917778 5 8.0644804v-7.5544217c-.00164608-.0785061.01523002-.1585527.0527864-.2336655.00555382-.0111076.0114653-.0219182.0177135-.0324247l3.4976106-5.99590401c.1929391-.33075265.6708399-.33075265.863779 0l3.4976106 5.99590401c.0062482.0105065.0121597.0213171.0177135.0324247.0375564.0751128.0544325.1551594.0527864.2336655zm-4 9.4899413c-5.5228475 0-10-4.4771525-10-10s4.4771525-10 10-10 10 4.4771525 10 10-4.4771525 10-10 10z"/></svg>