<svg height="24" viewBox="0 0 24 24" width="24" xmlns="http://www.w3.org/2000/svg"><path d="m15.5 12h1.5v-8.5c0-.82842712-.6715729-1.5-1.5-1.5h-9c-.82842712 0-1.5.67157288-1.5 1.5v8.5h1.5v-.3676192c0-.8781572.46074708-1.69192424 1.21376061-2.14373236l.96996601-.5819796c-.42717172-.51834262-.68372662-1.18254493-.68372662-1.90666884 0-1.65685425 1.34314575-3 3-3 1.6568542 0 3 1.34314575 3 3 0 .72412391-.2565549 1.38832622-.6837266 1.90666884l.969966.5819796c.7530135.45180812 1.2137606 1.26557516 1.2137606 2.14373236zm-1 0v-.3676192c0-.5268943-.2764483-1.0151546-.7282564-1.2862394l-1.2585795-.75514773c-.444222.25999016-.9612907.40900633-1.5131641.40900633s-1.06894212-.14901617-1.51316413-.40900633l-1.2585795.75514773c-.45180812.2710848-.72825637.7593451-.72825637 1.2862394v.3676192zm2.5 1h-12v5.5c0 .8284271.67157288 1.5 1.5 1.5h9c.8284271 0 1.5-.6715729 1.5-1.5zm.958119-9.95811902c1.1619212.21518177 2.041881 1.23388758 2.041881 2.45811902v15c0 1.3807119-1.1192881 2.5-2.5 2.5h-9c-1.22423144 0-2.24293725-.8799598-2.45811902-2.041881-1.16192118-.2151817-2.04188098-1.2338876-2.04188098-2.458119v-15c0-1.38071187 1.11928813-2.5 2.5-2.5h9c1.2242314 0 2.2429373.8799598 2.458119 2.04188098zm-10.87276615 17.95811902c.20591821.5825962.76153774 1 1.41464715 1h9c.8284271 0 1.5-.6715729 1.5-1.5v-15c0-.65310941-.4174038-1.20872894-1-1.41464715v14.41464715c0 1.3807119-1.1192881 2.5-2.5 2.5zm3.91464715-12c1.1045695 0 2-.8954305 2-2s-.8954305-2-2-2-2 .8954305-2 2 .8954305 2 2 2zm-3.5 7c-.27614237 0-.5-.2238576-.5-.5s.22385763-.5.5-.5h7c.2761424 0 .5.2238576.5.5s-.2238576.5-.5.5zm0 2c-.27614237 0-.5-.2238576-.5-.5s.22385763-.5.5-.5h5c.2761424 0 .5.2238576.5.5s-.2238576.5-.5.5z"/></svg>