<svg height="24" viewBox="0 0 24 24" width="24" xmlns="http://www.w3.org/2000/svg"><path d="m18 16.0001598v4.4998402c0 .2761424-.2238576.5-.5.5s-.5-.2238576-.5-.5v-4.4999201l-1.00003-.0000799c-.5522613-.0000332-.99994-.4477387-.99994-1l-.00003-2c0-.5522847.4477153-1 1-1h1v-8.5c0-.27614237.2238576-.5.5-.5s.5.22385763.5.5v8.5h1.0311589c.5522848 0 1 .4477153 1 .9999925l.0000301 2.0002497c0 .5522848-.4477153 1-1.00004 1zm-5-6v10.4998402c0 .2761424-.2238576.5-.5.5s-.5-.2238576-.5-.5v-10.4999201l-1.00003-.0000799c-.5522613-.00003319-.99994-.44773872-.99994-1l-.00003-2c0-.55228475.4477153-1 1-1h1v-2.5c0-.27614237.2238576-.5.5-.5s.5.22385763.5.5v2.5h1.0311589c.5522848 0 1 .44771525 1 .99999249l.0000301 2.00024975c0 .55228475-.4477153.99999996-1.00004.99999996zm-5 9v1.4998402c0 .2761424-.22385763.5-.5.5s-.5-.2238576-.5-.5v-1.4999201l-1.00003004-.0000799c-.55226129-.0000332-.99993991-.4477387-.99993991-1l-.00003005-2c0-.5522847.44771525-1 1-1h1v-11.5c0-.27614237.22385763-.5.5-.5s.5.22385763.5.5v11.5h1.03115892c.55228475 0 .99999998.4477153.99999998.9999925l.0000301 2.0002497c0 .5522848-.44771529 1-1.00003999 1zm-2-1.0001598 3.03118896.0002497v-2.0002497h-3.03118896zm5-9 3.031189.00024975v-2.00024975h-3.031189zm5 6 3.031189.0002497v-2.0002497h-3.031189z"/></svg>