<svg height="24" viewBox="0 0 24 24" width="24" xmlns="http://www.w3.org/2000/svg"><path d="m19 6v12.5c0 1.3807119-1.1192881 2.5-2.5 2.5h-9c-1.38071187 0-2.5-1.1192881-2.5-2.5v-12.5h-.5c-.27614237 0-.5-.22385763-.5-.5s.22385763-.5.5-.5h4.5v-.5c0-.82842712.67157288-1.5 1.5-1.5h3c.8284271 0 1.5.67157288 1.5 1.5v.5h4.5c.2761424 0 .5.22385763.5.5s-.2238576.5-.5.5zm-13 0v12.5c0 .8284271.67157288 1.5 1.5 1.5h9c.8284271 0 1.5-.6715729 1.5-1.5v-12.5zm8-1v-.5c0-.27614237-.2238576-.5-.5-.5h-3c-.2761424 0-.5.22385763-.5.5v.5zm0 4.5c0-.27614237.2238576-.5.5-.5s.5.22385763.5.5v7c0 .2761424-.2238576.5-.5.5s-.5-.2238576-.5-.5zm-5 0c0-.27614237.22385763-.5.5-.5s.5.22385763.5.5v7c0 .2761424-.22385763.5-.5.5s-.5-.2238576-.5-.5z"/></svg>