<svg height="24" viewBox="0 0 24 24" width="24" xmlns="http://www.w3.org/2000/svg"><path d="m7.86872332 11.2987983-4.05523607 2.0874369c-.49952907.2571331-.81348725.7718548-.81348725 1.3336792v.7800856c0 .8284353.67158104 1.5 1.50007042 1.5.27614237 0 .5.2238576.5.5s-.22385763.5-.5.5c-1.38076868 0-2.50007042-1.1192745-2.50007042-2.5v-.7800856c0-.9363741.52326364-1.7942435 1.35581209-2.2227987l3.35774454-1.7284024c-1.0716913-.93442441-1.71355663-2.29640737-1.71355663-3.7687133 0-2.76142375 2.23857625-5 5-5 1.6765944 0 3.2132159.83194719 4.1379524 2.1925488.1552234.22838633.0959131.53936344-.1324733.69458681-.2283863.15522338-.5393634.09591309-.6945868-.13247324-.7404925-1.08951614-1.9690296-1.75466237-3.3108923-1.75466237-2.209139 0-4 1.790861-4 4 0 1.41171278.73680464 2.69567406 1.92026949 3.4175913.23574342.1438042.31027487.4514883.16647066.6872317-.05383135.0882477-.13062699.1539049-.21801683.1939753zm4.09254248 4.2680375-4.08197022 1.855441c-.53549142.2434052-.87929558.7773345-.87929558 1.3655497v.7121735c0 .8284271.67157288 1.5 1.5 1.5h11c.8284271 0 1.5-.6715729 1.5-1.5v-.7121735c0-.5882152-.3438042-1.1221445-.8792956-1.3655497l-4.0819702-1.855441c-.6226288.2783777-1.3126053.4331642-2.0387342.4331642s-1.4161054-.1547865-2.0387342-.4331642zm-1.0391076-.6261371c-1.17006697-.9151623-1.9221582-2.3401003-1.9221582-3.9406987 0-2.76142375 2.2385763-5 5-5s5 2.23857625 5 5c0 1.6005984-.7520912 3.0255364-1.9221582 3.9406987l3.4566656 1.5712116c.8924857.4056754 1.4654926 1.2955575 1.4654926 2.2759162v.7121735c0 1.3807119-1.1192881 2.5-2.5 2.5h-11c-1.38071187 0-2.5-1.1192881-2.5-2.5v-.7121735c0-.9803587.57300693-1.8702408 1.46549264-2.2759162zm3.0778418.0593013c2.209139 0 4-1.790861 4-4s-1.790861-4-4-4-4 1.790861-4 4 1.790861 4 4 4z"/></svg>