<svg viewBox="0 0 32 32" xmlns="http://www.w3.org/2000/svg"><path d="m2 29c0-.78 1.92-1.7 3.24-2h.11l8-3a1 1 0 0 0 .65-1v-2.69a1 1 0 0 0 -.57-.9 6 6 0 0 1 -3.43-5.41 1 1 0 0 0 -1-1v-2a1 1 0 0 0 1-1v-2a6 6 0 0 1 12 0v2a1 1 0 0 0 1 1v2h2v-2a2 2 0 0 0 -1-1.73v-1.27a8 8 0 0 0 -16 0v1.27a2 2 0 0 0 -1 1.73v2a2 2 0 0 0 1 1.75 8.07 8.07 0 0 0 4 6.16v1.39l-7.3 2.7c-.91.23-4.7 1.37-4.7 4v2a1 1 0 0 0 1 1h14v-2h-13z"/><path d="m24 16a8 8 0 1 0 8 8 8 8 0 0 0 -8-8zm0 14a6 6 0 1 1 6-6 6 6 0 0 1 -6 6z"/><path d="m23 20h2v4h-2z"/><path d="m23 26h2v2h-2z"/></svg>